<svg xmlns="http://www.w3.org/2000/svg" width="59" height="55"><path fill="#FFF" fill-rule="evenodd" d="M38.995.758c.172-.025.369 0 .565.05.099.048.443.172.96.393.026.025.048.025.073.05 4.152 1.674 19.398 8.94 18.39 22.955a1.239 1.239 0 0 1-1.229 1.158h-.051c-.197-.025-17.012-1.207-19.495-19.95-3.466 4.654-9.366 14.753-5.015 24.851.49-.049 1.008-.123 1.522-.295 1.308-.444 2.78-.911 4.28-.148 4.403 2.315 7.154 6.798 7.154 11.7 0 7.29-6.072 13.226-13.521 13.226-3.712 0-7.08-1.453-9.538-3.842-2.458 2.389-5.826 3.842-9.538 3.842-7.449 0-13.52-5.936-13.52-13.226 0-4.877 2.703-9.335 7.079-11.65 1.5-.789 3-.32 4.329.098.342.098.661.197.98.246.542-5.172 4.008-23.005 26.255-29.36.074-.049.148-.049.246-.073.025 0 .05-.025.074-.025zM37.84 32.014c-.517-.27-1.23-.074-2.36.296-.836.27-1.82.59-2.852.59h-.025c-.172 0-.32-.048-.464-.073a9.927 9.927 0 0 1-2.387-.517c-.762-.222-1.328-.394-1.797-.394-.219 0-.44.024-.615.123a11.407 11.407 0 0 0-2.652 1.995 10.557 10.557 0 0 0-1.598 2.02 10.542 10.542 0 0 0-1.524 5.468c0 1.97.565 3.793 1.524 5.37.467.763.983 1.477 1.598 2.117a11.167 11.167 0 0 0 7.94 3.276c6.097 0 11.062-4.827 11.062-10.763 0-3.99-2.237-7.611-5.85-9.508zm-19.052 0c-.541-.27-1.254-.074-2.36.296-.787.246-1.672.542-2.63.566-.074.025-.148.025-.246.025-.074 0-.172 0-.246-.025-.934-.024-1.844-.32-2.63-.566-.738-.222-1.328-.394-1.795-.394-.221 0-.418.024-.615.123-3.564 1.896-5.777 5.517-5.777 9.483 0 5.936 4.966 10.763 11.063 10.763 3.122 0 5.924-1.256 7.942-3.276-1.502-2.143-2.387-4.704-2.387-7.487 0-2.734.858-5.32 2.387-7.488a11.16 11.16 0 0 0-2.706-2.02zm6.907 9.336c.639-.024 1.254.517 1.278 1.182 0 .025 0 .148.025.345.123.591.445 1.823 1.5 2.759 1.206 1.034 2.974 1.478 5.312 1.28a1.274 1.274 0 0 1 1.327 1.134c.047.665-.47 1.28-1.13 1.33-.419.024-.836.049-1.23.049-2.458 0-4.452-.665-5.927-1.97-.317-.271-.565-.567-.81-.862-1.427-1.848-1.525-3.868-1.525-3.966a1.218 1.218 0 0 1 1.18-1.28zm-18.975.007c.676-.037 1.243.503 1.27 1.18.003.067.126 1.852 1.544 3.099 1.183 1.04 2.967 1.475 5.293 1.283.125-.007.25.02.371.052.017.003.034.004.05.005l-.05-.006c.023.004.045.004.068.006l.043.01c.452.152.801.554.84 1.061.025.29-.073.557-.22.78-.033.045-.055.094-.09.134-.2.229-.486.386-.815.414-.418.032-.826.049-1.22.049-2.47 0-4.464-.66-5.929-1.973a6.709 6.709 0 0 1-.878-.968 7.58 7.58 0 0 1-.223-.314l.088.128.136.187c-1.362-1.8-1.46-3.758-1.465-3.854-.006-.194.033-.38.109-.546-.074.165-.113.35-.104.546l-.002-.05a1.22 1.22 0 0 1 .17-.618l.074-.112.087-.104-.087.104.087-.104a1.22 1.22 0 0 1 .853-.389zM35.898 4.354C18.444 10.955 15.42 25.487 14.904 30.142c.246-.049.491-.098.76-.172 1.307-.444 2.78-.911 4.255-.148 1.18.64 2.237 1.429 3.17 2.315a13.58 13.58 0 0 1 3.1-2.266c1.451-.788 2.9-.345 4.202.074-3.81-10.566 1.82-20.566 5.507-25.591zm4.597-.493C41.87 18.96 52.786 22.113 56.572 22.753c-.15-10.64-11.603-16.847-16.077-18.892z"/></svg>