<svg xmlns="http://www.w3.org/2000/svg" width="61" height="52"><path d="M30.629 8.59c.524.003.895.265 1.13.724.044.096.082.194.115.294 1.405 3.821 2.812 7.642 4.22 11.462.033.09.07.178.11.276.073.006.141.02.21.02l3.336.123 4.097.159 4.072.16c.333.014.665.023.998.043.488.01.923.309 1.11.76a1.245 1.245 0 0 1-.292 1.419c-.09.083-.189.157-.285.233l-9.48 7.465-.314.25 1.008 3.573c.047.007.095.011.142.013l3.415-.21.115-.274 2.519-6.406c.032-.081.063-.163.102-.241a1.263 1.263 0 0 1 2.285.008c.035.07.063.144.092.217l2.519 6.405c.034.09.072.178.113.277.075.01.137.025.204.025l3.543.214 3.461.21c.087.006.173.017.258.031.485.063.883.413 1.009.885a1.21 1.21 0 0 1-.343 1.275c-.08.08-.17.15-.258.222l-5.271 4.335c-.069.055-.134.112-.21.175.005.06.014.119.027.177l1.729 6.689c.037.127.067.256.09.387a1.26 1.26 0 0 1-1.86 1.305c-.085-.044-.165-.1-.246-.151l-5.186-3.307c-.081-.052-.161-.106-.246-.15a1.232 1.232 0 0 0-1.184 0c-.086.045-.166.1-.248.151l-5.184 3.307c-.082.052-.162.106-.247.151a1.255 1.255 0 0 1-1.82-.748 1.317 1.317 0 0 1 0-.726l.678-2.62.36-1.398c.016-.067.027-.135.04-.196-.163-.147-10.246-6.896-10.465-7.007-.185.092-10.41 6.926-10.652 7.12.015.076.03.16.052.243.327 1.272.656 2.543.986 3.814.057.194.074.397.05.597a1.262 1.262 0 0 1-.667.939c-.36.186-.79.187-1.151.003a3.507 3.507 0 0 1-.293-.177l-5.186-3.306c-.07-.045-.13-.09-.2-.129a1.243 1.243 0 0 0-1.276 0c-.073.042-.135.087-.202.13L6.9 51.101c-.088.055-.175.115-.268.166a1.26 1.26 0 0 1-1.82-1.472l.623-2.416c.386-1.483.77-2.966 1.152-4.45.017-.067.028-.135.043-.209-.065-.056-.122-.11-.182-.158L1.15 38.2c-.081-.067-.165-.132-.24-.205a1.21 1.21 0 0 1-.35-1.29c.129-.471.53-.818 1.015-.877.079-.013.157-.022.236-.027.717-.046 1.434-.085 2.15-.129.998-.057 1.993-.125 2.99-.186.631-.04 1.26-.076 1.89-.114l.15-.01c.095-.07.108-.172.141-.259l1.643-4.18.886-2.25c.026-.065.05-.13.08-.194.233-.492.607-.764 1.16-.767.553-.003.95.276 1.173.78.12.272.221.554.33.83l2.268 5.77c.032.081.068.161.106.25.47.06 3.52.236 3.764.215.191-.581.345-1.181.516-1.777.172-.596.337-1.194.506-1.795-.083-.066-.145-.123-.212-.176l-9.314-7.334c-.175-.136-.355-.265-.516-.412a1.21 1.21 0 0 1-.387-1.29c.138-.526.6-.902 1.144-.928.315-.02.63-.03.946-.041.665-.025 1.33-.047 1.996-.072l3.388-.136 1.472-.057 3.492-.128 1.29-.05c.049-.003.093-.012.129-.012a.549.549 0 0 0 .129-.258l2.115-5.743 2.114-5.744c.033-.1.072-.197.117-.292a1.216 1.216 0 0 1 1.161-.724zm-17.72 23.856c-.051.134-.092.23-.13.327l-1.854 4.714c-.039.096-.083.19-.122.278-.052.008-.086.017-.12.017-.762.048-1.523.098-2.282.144l-2.153.13a71.56 71.56 0 0 0-.917.056.256.256 0 0 0-.201.065c.07.06.133.118.199.174l3.954 3.259a.625.625 0 0 1 .192.204c-.014.065-.026.135-.043.202l-.43 1.652c-.297 1.144-.593 2.288-.888 3.433-.011.065-.051.13 0 .21.046-.025.093-.046.137-.074l.516-.324 2.083-1.322a3.804 3.804 0 0 1 4.102-.014c.4.248.798.505 1.197.763.458.292.915.585 1.375.875.058.035.105.097.187.075a.409.409 0 0 0-.032-.258l-1.29-5.01c-.02-.074-.032-.15-.05-.236l.289-.24c.92-.757 1.838-1.516 2.761-2.27a.616.616 0 0 0 .223-.341c.06-.228.127-.455.19-.682a.18.18 0 0 0-.013-.177c-.079-.01-.173-.028-.267-.028-.201-.013-.402-.02-.604-.033l-2.15-.129-1.574-.098c-.053-.004-.119-.018-.182-.028-.14-.357-.279-.708-.415-1.058l-.414-1.05-.424-1.076c-.136-.351-.273-.705-.414-1.051-.14-.347-.261-.703-.437-1.079zm35.19.022a.79.79 0 0 0-.144.292l-1.887 4.791c-.028.07-.06.142-.09.21-.058.008-.1.018-.143.018l-2.388.149c-.638.038-1.276.074-1.915.114-.05.003-.108-.006-.144.067.006.03.015.071.027.113.084.303.178.605.251.91a.68.68 0 0 0 .258.387l2.555 2.107c.067.055.13.114.182.16v.077l-1.37 5.287c-.003.018-.01.035-.01.052a.235.235 0 0 0 0 .053v.024c.005.008.01.016.017.024a.67.67 0 0 0 .25-.136l2.48-1.586a3.796 3.796 0 0 1 4.127 0l1.312.846 1.219.774c.063.04.118.107.216.089a.517.517 0 0 0-.037-.258l-1.29-4.985c-.022-.081-.038-.166-.06-.258l.23-.192 1.604-1.32c.798-.656 1.596-1.313 2.393-1.973.047-.042.123-.068.116-.183-.628-.048-1.265-.075-1.885-.117-.62-.043-1.242-.079-1.863-.116l-1.91-.113-.357-.902-.347-.88-.344-.88c-.115-.295-.231-.588-.347-.88-.116-.293-.227-.592-.346-.881-.118-.29-.215-.59-.36-.884zM30.641 13.58a.482.482 0 0 0-.13.247l-1.27 3.45-2.321 6.284a.532.532 0 0 1-.14.267c-.09.006-.195.017-.301.017l-2.074.075c-.508.018-1.016.037-1.523.058-1.09.04-2.189.086-3.282.129-.693.027-1.384.049-2.076.074-.447.016-.893.033-1.34.052a.476.476 0 0 0-.27.05c.056.054.103.101.154.143l1.135.895 7 5.512c.097.065.184.144.258.235l-.288 1.031-.302 1.062c-.098.34-.193.678-.294 1.032l-.298 1.061-.294 1.032c-.1.353-.202.72-.3 1.061-.098.34-.19.679-.29 1.032l-.302 1.061c-.098.34-.196.68-.292 1.032-.095.352-.213.7-.293 1.075a.614.614 0 0 0 .267-.14l3.54-2.366 5.067-3.39a.596.596 0 0 1 .243-.129.166.166 0 0 1 .031.012l8.871 5.933.066.043.045.026a.073.073 0 0 0 .024.007l.056-.04c-.155-.588-.324-1.158-.488-1.743-.163-.584-.327-1.163-.491-1.745-.164-.581-.329-1.153-.495-1.742-.167-.59-.33-1.18-.497-1.77l-.495-1.743-.495-1.752c.216-.19.44-.36.66-.53.22-.17.44-.342.66-.516l.66-.516.662-.515 1.321-1.032.645-.503.66-.516.66-.516.672-.51.66-.515c.221-.17.446-.342.661-.516.215-.174.444-.332.654-.534a.52.52 0 0 0-.298-.05l-3.467-.13c-.516-.018-1.031-.038-1.547-.059l-3.334-.129-1.997-.073c-.086-.003-.171-.014-.267-.023-.16-.438-.32-.863-.477-1.29-.158-.424-.315-.85-.472-1.28l-.472-1.283-.463-1.257-.47-1.282-.473-1.281-.472-1.282c-.158-.428-.3-.858-.482-1.29zm-25.929.336c.167-.006.334.016.493.065l1.16.313 8.347 2.237c.101.025.202.056.3.092.562.216.89.802.783 1.394a1.29 1.29 0 0 1-1.245 1.06c-.153-.032-.31-.057-.46-.097-.694-.183-1.388-.37-2.08-.555l-7.407-1.988a2.58 2.58 0 0 1-.203-.057 1.268 1.268 0 0 1-.861-1.37 1.28 1.28 0 0 1 1.173-1.094zm50.005.07c.235-.074.485-.086.725-.034a1.26 1.26 0 0 1 .226 2.374c-.105.044-.214.08-.324.107l-7.841 2.101c-.56.15-1.117.302-1.677.449-.142.037-.289.062-.435.092a1.301 1.301 0 0 1-1.266-1.067 1.268 1.268 0 0 1 .798-1.39c.081-.03.167-.055.25-.078zM54.12.847c.376-.31.902-.366 1.335-.14.403.17.676.554.705.991.001.452-.1.716-.291.947-.06.08-.13.14-.199.21L45.207 13.318c-.056.055-.11.113-.17.165-.35.34-.868.438-1.319.25a1.257 1.257 0 0 1-.515-1.959c.059-.074.123-.145.19-.212L53.907 1.044a1.98 1.98 0 0 1 .213-.196zm-50 .105A1.261 1.261 0 0 1 5.8.838c.073.06.142.125.207.195l10.557 10.555c.063.06.122.125.176.194.31.377.366.903.14 1.335-.186.42-.598.695-1.057.705a1.286 1.286 0 0 1-.902-.31 4.576 4.576 0 0 1-.19-.183L4.27 2.867a2.822 2.822 0 0 1-.217-.234A1.26 1.26 0 0 1 4.121.952zm14.888.107a1.263 1.263 0 0 1 1.236.744c.042.105.075.213.101.323.848 3.176 1.696 6.346 2.546 9.512.073.226.089.466.046.7a1.253 1.253 0 0 1-1.269 1.004 1.23 1.23 0 0 1-1.16-.868c-.117-.367-.208-.742-.309-1.113-.764-2.858-1.528-5.716-2.29-8.574a1.473 1.473 0 0 1-.027-.827c.15-.506.6-.866 1.126-.9zm20.69.742a1.261 1.261 0 0 1 2.412.524c-.006.14-.03.278-.07.413-.65 2.424-1.3 4.847-1.952 7.27l-.597 2.232c-.022.09-.043.176-.072.258a1.252 1.252 0 0 1-1.186.84c-.386.003-.752-.172-.992-.474s-.329-.698-.24-1.074c.145-.56.295-1.118.444-1.676l2.146-7.989c.028-.11.063-.219.108-.324z" fill="#FFF"/></svg>