<svg xmlns="http://www.w3.org/2000/svg" width="56" height="33"><path fill="#FEFEFE" fill-rule="evenodd" stroke="#FFF" d="M13.02 17.872c-.164 1.45-.303 2.86-.491 4.265-.094.697.216 1.043.856 1.148 1.962.321 3.922.853 5.892.894 5.82.12 11.646.12 17.466 0 1.97-.04 3.93-.572 5.892-.893.638-.105.952-.451.857-1.149-.195-1.43-.345-2.868-.509-4.259-10.037 1.558-19.911 1.567-29.962-.006h0zm31.685 3.158c0 .418-.01.731.001 1.044.063 1.702-.072 1.953-1.751 2.398-1.189.314-2.41.643-3.628.69-5.742.22-11.49.502-17.232.438-3.043-.033-6.095-.633-9.11-1.161-1.63-.286-1.759-.691-1.678-2.314.018-.348.003-.696.003-1.118-2.796.546-5.48 1.125-7.825 2.64-1.594 1.028-1.585 2.079.063 3.043a17.39 17.39 0 0 0 3.584 1.579c5.058 1.574 10.299 2.132 15.557 2.337 7.066.276 14.132.163 21.122-1.13 2.938-.544 5.875-1.124 8.489-2.663 1.83-1.077 1.868-2.176.091-3.26-2.332-1.421-4.952-2.023-7.686-2.523h0zm-1.948-4.604c-.166-.871-.299-1.685-.48-2.488-.696-3.084-1.431-6.16-3.242-8.838-1.97-2.914-4.7-3.543-7.58-1.613-2.334 1.564-4.516 1.625-6.852.039-.822-.559-1.845-1.022-2.82-1.127-2.249-.243-3.755 1.116-4.88 2.843-2.21 3.392-2.904 7.284-3.647 11.14 4.296 1.792 24.067 1.91 29.501.044h0zM55 25.67c-.932.875-1.732 1.992-2.822 2.58-3.336 1.8-7.07 2.345-10.772 2.88-6.506.94-13.059 1.029-19.605.688-5.332-.277-10.657-.83-15.741-2.604-1.367-.476-2.723-1.167-3.868-2.039-1.68-1.28-1.545-2.979.159-4.262 1.982-1.493 4.34-2.104 6.693-2.705.804-.205 1.616-.371 2.445-.56.606-4.269 1.24-8.49 2.976-12.429a19.155 19.155 0 0 1 2.138-3.673C18.526.962 21.788.173 24.437 1.982c2.545 1.737 4.62 1.724 7.16-.007 2.618-1.783 5.778-.998 7.776 1.476 2.392 2.962 3.318 6.52 4.1 10.117.428 1.966.712 3.963 1.075 6.024 1.62.428 3.328.788 4.968 1.345 1.305.443 2.603 1.012 3.757 1.75.717.46 1.16 1.34 1.727 2.031v.952z"/></svg>