<svg xmlns="http://www.w3.org/2000/svg" width="54" height="55"><path fill="#FFF" d="M26.661.805a.898.898 0 0 1 1.155.528l2.476 6.602h7.46a.898.898 0 0 1 .523 1.63l-1.51 1.078c.03-.003.058-.014.09-.014h3.935l2.001-3.994a.935.935 0 0 1 1.608 0l1.992 3.994h3.935a.9.9 0 0 1 .635 1.533L49.8 13.325h3.22c.497 0 .899.402.899.898V53.74a.898.898 0 0 1-.898.898H.929a.898.898 0 0 1-.898-.898V14.222c0-.496.402-.898.898-.898h3.22l-1.16-1.161a.9.9 0 0 1 .635-1.534h3.935L9.56 6.635a.935.935 0 0 1 1.608 0l1.992 3.994h3.936c.031 0 .06.013.09.013l-1.51-1.078a.898.898 0 0 1 .521-1.629h7.461l2.475-6.602a.9.9 0 0 1 .528-.528zM5.946 15.12H1.827v37.721h50.296v-37.72h-4.12l-.275.275.775 3.098a.899.899 0 0 1-1.236 1.039L43.59 17.9l-3.677 1.634a.897.897 0 0 1-1.235-1.039l.775-3.098-.276-.276H32.84l1.292 5.17a.9.9 0 0 1-1.321.998l-5.837-3.337-5.838 3.337a.897.897 0 0 1-1.32-.997l1.292-5.17h-6.336l-.276.275.775 3.098a.899.899 0 0 1-1.236 1.039L10.36 17.9l-3.677 1.634a.896.896 0 0 1-1.236-1.039l.775-3.098-.276-.276zm38.992 28.74a3.593 3.593 0 1 1-.001 7.185 3.593 3.593 0 0 1 .001-7.185zm-17.963 0a3.593 3.593 0 1 1-.001 7.185 3.593 3.593 0 0 1 .001-7.185zm8.981 0a3.593 3.593 0 1 1 0 7.187 3.593 3.593 0 0 1 0-7.187zm-17.962 0a3.593 3.593 0 1 1-.001 7.185 3.593 3.593 0 0 1 .001-7.185zm-8.982 0a3.593 3.593 0 1 1 0 7.187 3.593 3.593 0 0 1 0-7.187zm35.926 1.796a1.797 1.797 0 1 0 0 3.594 1.797 1.797 0 0 0 0-3.594zm-17.963 0a1.797 1.797 0 1 0 .001 3.593 1.797 1.797 0 0 0-.001-3.593zm-17.963 0a1.797 1.797 0 1 0 .001 3.593 1.797 1.797 0 0 0-.001-3.593zm8.982 0a1.798 1.798 0 1 0 .001 3.595 1.798 1.798 0 0 0-.001-3.595zm17.962 0a1.797 1.797 0 1 0 .001 3.593 1.797 1.797 0 0 0-.001-3.593zM48.53 23.203c.496 0 .898.402.898.898v17.065a.898.898 0 0 1-.898.898H5.42a.898.898 0 0 1-.898-.898V24.1c0-.496.402-.898.898-.898zM47.632 25H35.058v15.269h12.574v-15.27zm-28.74 0H6.318v15.269h12.574v-15.27zm14.37 0H20.688v15.269h12.574v-15.27zm-17.065 1.797a.898.898 0 0 1 .702 1.459l-.226.282a14.511 14.511 0 0 0-3.17 9.036.898.898 0 1 1-1.796 0 16.327 16.327 0 0 1 2.706-8.981H9.91v.898a.898.898 0 1 1-1.796 0v-1.796c0-.496.402-.898.898-.898zm14.37 0a.898.898 0 0 1 .702 1.459l-.226.282a14.511 14.511 0 0 0-3.17 9.036.898.898 0 1 1-1.796 0 16.327 16.327 0 0 1 2.706-8.981H24.28v.898a.899.899 0 0 1-1.797 0v-1.796c0-.496.402-.898.898-.898zm14.37 0a.898.898 0 0 1 .702 1.459l-.226.282a14.511 14.511 0 0 0-3.17 9.036.898.898 0 1 1-1.796 0 16.327 16.327 0 0 1 2.706-8.981H38.65v.898a.899.899 0 0 1-1.797 0v-1.796c0-.496.402-.898.898-.898zM26.976 4.206l-1.853 4.942a.896.896 0 0 1-.841.583H19l4.009 2.862a.9.9 0 0 1 .35.949l-1.286 5.143 4.46-2.548a.895.895 0 0 1 .89 0l4.456 2.548-1.286-5.143a.9.9 0 0 1 .35-.95l4.005-2.86h-5.28a.898.898 0 0 1-.841-.586l-1.853-4.94zm16.615 4.84l-1.437 2.883a.898.898 0 0 1-.808.497h-2.323l2.054 2.06a.895.895 0 0 1 .237.852l-.45 1.806 2.36-1.049a.9.9 0 0 1 .73 0l2.359 1.049-.45-1.806a.9.9 0 0 1 .237-.853l2.06-2.06h-2.323a.897.897 0 0 1-.809-.496L43.59 9.045zm-33.23 0l-1.442 2.883a.9.9 0 0 1-.804.497H5.792l2.054 2.06a.895.895 0 0 1 .236.852l-.45 1.806 2.36-1.049a.9.9 0 0 1 .73 0l2.359 1.049-.45-1.806a.9.9 0 0 1 .237-.853l2.06-2.06h-2.323a.9.9 0 0 1-.804-.496L10.36 9.045zm25.678 2.116l-3.028 2.162h4.37l-1.16-1.161a.898.898 0 0 1-.196-.98c.004-.008.014-.014.014-.021zm-18.126 0c.004.007.013.013.013.022a.897.897 0 0 1-.195.979l-1.16 1.16h4.37z"/></svg>