<svg xmlns="http://www.w3.org/2000/svg" width="54" height="55"><path fill="#FFF" fill-rule="evenodd" d="M19.523 7.178c.469-.005.755.253.968.655.505.955 1.03 1.9 1.559 2.843.073.13.2.253.33.326.98.548 1.963 1.089 2.952 1.619.364.195.586.482.588.886.003.404-.217.695-.58.89-.962.516-1.923 1.036-2.872 1.576a1.32 1.32 0 0 0-.472.473c-.558.983-1.093 1.979-1.666 3.027l1.644-.421c.166-.043.329-.109.498-.131 1.214-.164 2.138-.953 3.19-1.464.128-.061.242-.154.373-.202 1.016-.375 1.668-1.09 2.095-2.074.276-.637.664-1.225.992-1.84.192-.357.483-.53.884-.531.4-.001.691.173.884.529.535.986 1.073 1.97 1.62 2.947a.912.912 0 0 0 .327.337c.952.534 1.91 1.055 2.87 1.576.86.466.927 1.222.112 1.849l3.474.9c2.805.73 5.612 1.455 8.413 2.199.24.063.488.218.659.399 1.786 1.89 3.56 3.791 5.333 5.694.591.635.371 1.41-.469 1.667-1.458.446-2.915.894-4.378 1.325-.257.076-.34.185-.34.457.009 4.885.006 9.77.006 14.654 0 .74-.184.99-.89 1.205-6.663 2.036-13.327 4.07-19.988 6.11a1.959 1.959 0 0 1-1.188-.004c-6.652-2.038-13.306-4.07-19.96-6.102-.722-.22-.921-.49-.921-1.25V32.083l-2.945-.942c-.625-.2-1.252-.394-1.874-.603-.748-.25-.962-1.06-.409-1.616a758.36 758.36 0 0 1 5.465-5.446c.163-.161.404-.277.63-.337 4.169-1.105 8.34-2.197 12.511-3.293.037-.01.072-.03.069-.028-.207-.323-.423-.631-.607-.958-.455-.81-.887-1.633-1.349-2.44a1.204 1.204 0 0 0-.429-.436 134.79 134.79 0 0 0-2.82-1.541c-.383-.205-.654-.471-.652-.937.003-.466.28-.727.662-.932.962-.515 1.92-1.038 2.873-1.57a.916.916 0 0 0 .33-.33 142.58 142.58 0 0 0 1.559-2.843c.206-.39.482-.648.939-.653zM7.492 32.698v.442c0 4.45.004 8.9-.008 13.349 0 .302.1.408.375.492 5.613 1.707 11.222 3.424 16.832 5.138.438.134.879.26 1.328.394V32.9c-.1.114-.15.175-.203.233-1.126 1.205-2.259 2.404-3.375 3.618-.361.393-.762.487-1.257.328-3.432-1.101-6.865-2.198-10.298-3.297l-3.394-1.085zm39.103.244c-.1.025-.168.04-.234.06-4.454 1.352-8.91 2.7-13.36 4.06-.546.167-.969.077-1.372-.336-1.153-1.18-2.33-2.336-3.546-3.552v19.33c.078-.02.136-.03.192-.048 6.025-1.84 12.05-3.681 18.078-5.514.222-.068.267-.173.267-.382-.005-4.44-.004-8.878-.005-13.317 0-.094-.012-.188-.02-.301zm.363-7.649c-5.593 1.796-11.19 3.58-16.786 5.366-.464.149-.927.303-1.419.464.09.096.142.156.199.212 1.203 1.201 2.41 2.399 3.606 3.607.152.153.276.17.474.11 5.379-1.639 10.76-3.27 16.14-4.902.703-.213 1.405-.431 2.133-.655-.089-.1-.154-.176-.222-.25-1.18-1.263-2.368-2.522-3.538-3.796-.183-.2-.326-.24-.587-.156zm-40.327.052c-1.222 1.225-2.449 2.446-3.673 3.668-.048.047-.086.103-.138.167.075.03.129.057.186.076l3.518 1.124c4.825 1.544 9.652 3.087 14.475 4.638.257.083.411.044.596-.161.676-.752 1.378-1.48 2.07-2.22.557-.595 1.112-1.193 1.7-1.825-6.153-1.867-12.248-3.716-18.34-5.572-.177-.054-.274-.016-.394.105zm25.852-3.317c-.538.983-1.07 1.97-1.62 2.947-.404.719-1.3.71-1.713-.004-.142-.245-.275-.494-.412-.742l-.748-1.363-.046.02v6.206l16.078-4.912c-.112-.043-.155-.065-.2-.077l-10.087-2.621c-.514-.134-.997.08-1.252.546zm-8.045-1.641c-4.047 1.05-8.091 2.113-12.135 3.175-.718.188-1.434.382-2.15.574l.007.063c5.274 1.6 10.547 3.202 15.833 4.807.01-.074.023-.124.023-.173-.005-2.548-.01-5.096-.025-7.645 0-.094-.084-.222-.167-.274a6.051 6.051 0 0 0-.852-.463c-.16-.067-.37-.106-.534-.064zm5.568-4.668c-.345.629-.667 1.199-.971 1.778a1.51 1.51 0 0 1-.673.668c-.589.304-1.164.634-1.777.97.372.207.692.424 1.041.569.856.354 1.457.936 1.808 1.797.145.355.368.677.576 1.051.352-.64.658-1.243 1.01-1.818.14-.229.354-.443.583-.583.582-.355 1.191-.664 1.829-1.013-.201-.112-.358-.225-.533-.293-1.24-.482-2.116-1.322-2.59-2.573-.069-.18-.186-.343-.303-.553zm-10.47-5.626c-.345.628-.67 1.205-.98 1.791a1.48 1.48 0 0 1-.652.65c-.59.307-1.169.635-1.794.978.638.348 1.248.66 1.833 1.013.222.134.431.338.566.559.352.576.66 1.18 1.02 1.836.07-.115.123-.197.17-.282.268-.487.546-.968.797-1.463.163-.32.396-.545.714-.71.578-.3 1.145-.622 1.752-.953-.627-.345-1.206-.674-1.797-.982a1.478 1.478 0 0 1-.649-.65c-.307-.587-.636-1.163-.98-1.787zM27.595.748c.42.001.714.215.914.591.514.962 1.038 1.919 1.573 2.868.089.156.238.304.394.392.969.544 1.947 1.073 2.924 1.6.35.19.55.465.573.85-.008.428-.206.716-.568.91-.969.524-1.939 1.047-2.897 1.59-.18.103-.348.275-.45.456-.535.939-1.052 1.888-1.563 2.84-.199.37-.48.601-.907.602-.43 0-.707-.24-.905-.608-.528-.977-1.06-1.952-1.604-2.92a.903.903 0 0 0-.331-.33c-.98-.547-1.963-1.086-2.951-1.617-.362-.195-.587-.478-.59-.885-.002-.407.218-.696.58-.891.96-.518 1.922-1.035 2.87-1.574.189-.107.368-.285.475-.473.53-.93 1.04-1.872 1.544-2.816.201-.376.499-.585.919-.585zm-.002 2.915c-.338.614-.664 1.179-.963 1.757-.165.32-.4.545-.715.71-.573.299-1.136.615-1.75.95.588.323 1.128.64 1.686.92.37.186.634.442.819.812.248.496.527.976.794 1.462.035.064.083.12.14.202.307-.556.614-1.067.873-1.601.205-.422.505-.709.921-.915.538-.267 1.058-.571 1.622-.88-.619-.336-1.19-.657-1.771-.96a1.557 1.557 0 0 1-.693-.69c-.301-.58-.624-1.147-.963-1.767z"/></svg>